<svg width="136" height="57" viewBox="0 0 136 57" fill="none" xmlns="http://www.w3.org/2000/svg">
<g clip-path="url(#clip0_355_21678)">
<path d="M51.6246 0.519593C51.9229 0.815039 52.1658 1.46502 52.1658 1.89131V12.6287C52.1658 13.1858 51.8462 13.8527 51.3987 14.2241H60.3864L59.9943 13.0929C59.9773 13.1309 59.956 13.1858 59.956 13.2238C59.7855 13.7598 59.4148 14.0595 58.8522 14.0595H53.7213L53.7042 14.0426C53.3463 13.6712 53.2738 13.1351 53.2738 12.6498L53.2568 5.02726H56.3294C56.8919 5.02726 57.5269 5.34381 57.8465 5.80386V4.07761C57.4928 4.55876 57.0027 4.87531 56.3294 4.87531H53.2568V1.81534C53.2568 1.35106 53.3335 0.793936 53.7085 0.443621L53.7255 0.426739H58.8352C59.4531 0.426739 59.8835 0.836143 59.9943 1.37217L60.3864 0.295898H51.3817L51.42 0.333884C51.4967 0.388753 51.5692 0.443622 51.6246 0.519593ZM79.5167 6.6902L82.4486 9.19727L83.1561 9.80504L84.5411 11.0122L85.1462 12.6498C85.257 12.9663 85.3508 13.2997 85.3508 13.6332C85.3508 13.8358 85.3124 14.0426 85.2016 14.2283H87.0938C86.625 13.878 86.2159 13.3209 86.0454 12.8186L81.6347 0.557579L81.5494 0.317002L79.538 6.10353C79.538 6.10353 78.2552 9.91056 77.7694 11.0417C77.3219 12.08 76.3588 13.1647 74.8502 13.6754C74.5988 13.7598 74.3303 13.8273 74.0405 13.8822C74.015 13.8864 73.9851 13.8906 73.9595 13.8949C73.8999 13.9033 73.836 13.916 73.7763 13.9244C73.495 13.9624 73.1967 13.9793 72.8856 13.9751C72.0376 13.9666 71.1853 13.8527 70.4096 13.6458C68.0573 12.6371 66.6935 9.75861 66.6935 7.26843C66.6935 6.0993 66.9365 4.95129 67.4436 3.8919C68.3598 2.03903 70.0645 0.481607 72.2549 0.481607C73.0774 0.481607 73.9212 0.612448 74.6712 1.01763C75.4767 1.4608 76.3929 2.27961 76.3929 3.31789C76.3929 3.39386 76.3929 3.46561 76.3759 3.52048L77.9654 2.85362C77.8163 2.76076 77.7012 2.65103 77.6117 2.53707C76.2267 0.996528 74.2962 0.350767 72.2379 0.350767C68.4365 0.350767 65.4619 3.5036 65.4619 7.26843C65.4619 11.0333 68.4195 14.1861 72.2379 14.1861C72.647 14.1861 73.0348 14.1692 73.397 14.1312C75.8432 13.9666 77.339 12.4978 77.9356 11.1092C78.3106 10.2313 79.1587 7.77491 79.5294 6.6902H79.5167ZM79.6956 6.16261L81.1702 1.89553L82.406 5.23407L82.4614 5.4029L84.4047 10.6703L79.5721 6.52137C79.6488 6.3019 79.6914 6.16683 79.6914 6.16683L79.6956 6.16261ZM135.118 42.5827C134.832 43.4943 134.197 44.0008 133.242 44.0008H124.536L124.506 43.9713C123.901 43.3424 123.773 42.4307 123.773 41.6119L123.739 28.6756H128.951C129.906 28.6756 130.984 29.2116 131.525 29.9967V27.0718C130.92 27.8906 130.093 28.4266 128.951 28.4266H123.739V23.2352C123.739 22.4501 123.867 21.5047 124.502 20.9054L124.532 20.8758H133.208C134.257 20.8758 134.99 21.568 135.177 22.4797L135.846 20.6521H120.56L120.624 20.7154C120.752 20.8083 120.88 20.9054 120.973 21.032C121.48 21.5343 121.894 22.6358 121.894 23.3618V41.5866C121.894 42.532 121.353 43.6632 120.59 44.292H135.846L135.177 42.3716C135.147 42.435 135.113 42.5278 135.113 42.5911L135.118 42.5827ZM29.0083 1.3173C29.1788 0.781274 29.5709 0.481607 30.1334 0.481607H32.473L32.4901 0.49849C32.7884 0.777054 33.0142 1.49879 33.0142 1.88709V12.6287C33.0142 13.2407 32.733 13.8358 32.2471 14.203H34.7572C34.2714 13.8864 34.1222 13.1267 34.1222 12.6287V1.90819C34.1222 1.42703 34.1989 0.886791 34.5527 0.49849L34.5697 0.481607H37.0244C37.5869 0.481607 37.9619 0.798157 38.1281 1.3173C38.1452 1.37217 38.1452 1.42703 38.1665 1.46502L38.5799 0.295898H28.5609L28.9742 1.46502C28.9913 1.42703 28.9913 1.37217 29.0126 1.3173H29.0083ZM87.7927 14.2241H90.3198C89.8127 13.8906 89.6635 13.1309 89.6635 12.6118V9.29434L91.5343 6.67753L94.8285 12.6118C94.9777 12.8903 95.1098 13.2786 95.1098 13.5952C95.1098 13.764 95.0928 14.0384 94.9393 14.2241H97.4665C97.3727 14.1692 97.296 14.1312 97.2235 14.0932C96.661 13.7387 96.2519 13.2196 95.9323 12.6455L92.148 5.82074L95.1268 1.73936C95.6127 1.0725 96.3073 0.62511 97.0744 0.312781H95.1823C95.1823 0.312781 95.1993 0.36765 95.2206 0.405636C95.259 0.49849 95.276 0.608227 95.276 0.663096C95.276 1.12737 95.0501 1.57054 94.8072 1.92507L89.6592 9.00734V1.90819C89.6592 1.38905 89.8084 0.62933 90.2942 0.312781H87.7841C88.2529 0.684199 88.5725 1.29619 88.5725 1.88709V12.6455C88.5725 13.2196 88.2529 13.8527 87.7841 14.2199L87.7927 14.2241ZM98.6341 0.333884C98.7108 0.388753 98.7833 0.443622 98.8387 0.519593C99.137 0.815039 99.3799 1.46502 99.3799 1.89131V12.6287C99.3799 13.1858 99.0603 13.8527 98.6128 14.2241H107.601L107.208 13.0929C107.191 13.1309 107.17 13.1858 107.17 13.2238C107 13.7598 106.629 14.0595 106.066 14.0595H100.935L100.918 14.0426C100.56 13.6712 100.488 13.1351 100.488 12.6498L100.471 5.02726H103.543C104.106 5.02726 104.741 5.34381 105.061 5.80386V4.07761C104.707 4.55876 104.217 4.87531 103.543 4.87531H100.471V1.81534C100.471 1.35106 100.548 0.793936 100.918 0.443621L100.935 0.426739H106.045C106.663 0.426739 107.093 0.836143 107.204 1.37217L107.596 0.295898H98.5915C98.5915 0.295898 98.6086 0.312781 98.6299 0.333884H98.6341ZM39.5131 14.2241H41.4053C41.0516 13.8147 40.9578 13.1858 40.9578 12.7046V5.04414H48.5988L48.5818 12.7384C48.5818 13.2744 48.3559 13.8316 48.0022 14.2199H49.8944C49.5407 13.8104 49.4256 13.1816 49.4256 12.7004V1.79845C49.4256 1.35528 49.5364 0.722185 49.8731 0.295898H48.0022C48.3559 0.705302 48.5818 1.24133 48.5818 1.78157L48.5988 4.87953H40.9791L40.9621 1.80267C40.9621 1.3595 41.0729 0.726406 41.4095 0.300119H39.5174C39.8711 0.709523 40.1183 1.24555 40.1183 1.78579V12.7384C40.1183 13.2744 39.8754 13.8316 39.5174 14.2199L39.5131 14.2241ZM53.6403 22.6274C53.6744 22.5641 53.6744 22.4712 53.7042 22.3742C53.9898 21.4625 54.6588 20.956 55.6092 20.956H59.581L59.6108 20.9856C60.1179 21.4583 60.5015 22.6865 60.5015 23.3449V41.5697C60.5015 42.608 60.0242 43.6167 59.1974 44.2456H63.4547C62.628 43.7096 62.3723 42.4181 62.3723 41.5697V23.3829C62.3723 22.5641 62.5001 21.6524 63.1053 20.9898L63.1394 20.9602H67.3029C68.2575 20.9602 68.8925 21.4963 69.178 22.3784C69.2079 22.4712 69.2079 22.5683 69.242 22.6316L69.9409 20.6479H52.9371L53.636 22.6316L53.6403 22.6274ZM75.8219 20.707L75.8517 20.6775H71.5603C72.3529 21.2768 72.8302 22.4712 72.8302 23.3534V41.6077C72.8302 42.6798 72.3529 43.6547 71.5262 44.2836H75.8474C74.8928 43.6843 74.7011 42.4898 74.7011 41.5444V23.3829C74.7011 22.4375 74.8928 21.2726 75.8133 20.707H75.8219ZM47.6357 20.707C47.7636 20.7999 47.8914 20.8969 48.0193 21.0236C48.5264 21.5891 48.9099 22.5641 48.9099 23.3534V38.1172C48.9099 41.5486 46.9411 44.1274 43.3486 44.1274C40.7703 44.1274 39.0316 42.8359 38.2347 40.8606C40.3101 38.7123 41.5715 35.7621 41.5715 32.5755C41.5715 29.1568 40.097 26.0124 37.7233 23.8345V23.3829C37.7233 22.2475 37.9449 21.243 38.9293 20.6437H34.574C35.0896 21.032 35.4646 21.6735 35.6692 22.3235C34.02 21.3781 32.115 20.8336 30.0609 20.8336C23.6089 20.8336 18.5547 26.2487 18.5547 32.5755C18.5547 38.9023 23.6089 44.3469 30.0609 44.3469C32.8011 44.3469 35.2729 43.3719 37.2204 41.7765C37.5102 42.1353 37.8298 42.4687 38.1921 42.7431C39.6836 43.8447 41.465 44.3174 43.34 44.3174C47.1201 44.3174 50.7765 42.1142 50.7765 37.9906V23.3829C50.7765 22.218 51.0322 21.243 51.9825 20.6437H47.5633C47.5832 20.6634 47.6045 20.6845 47.6272 20.707H47.6357ZM30.0609 44.1274C26.3406 44.1274 23.4811 41.4515 21.9256 38.3029C21.0349 36.5387 20.6215 34.5888 20.6215 32.605C20.6215 30.6213 21.0349 28.7009 21.9256 26.9072C23.4811 23.7585 26.3448 21.0193 30.0609 21.0193C33.7771 21.0193 36.6408 23.7248 38.2304 26.9072C39.087 28.7009 39.4705 30.6509 39.4705 32.605C39.4705 34.5592 39.087 36.5387 38.2304 38.3029C36.6408 41.4811 33.7813 44.1274 30.0609 44.1274ZM114.619 20.707C114.747 20.7999 114.875 20.8969 115.003 21.0236C115.51 21.5891 115.894 22.5641 115.894 23.3534V38.1172C115.894 41.5486 113.925 44.1274 110.332 44.1274C106.74 44.1274 104.707 41.5444 104.707 38.0835V23.3829C104.707 22.2475 104.928 21.243 105.913 20.6437H101.558C102.35 21.243 102.828 22.4375 102.828 23.3491L102.857 38.1721C102.857 39.9026 103.778 41.6963 105.176 42.7346C106.671 43.8362 108.449 44.3089 110.324 44.3089C114.104 44.3089 117.76 42.1057 117.76 37.9822V23.3829C117.76 22.218 118.016 21.243 118.966 20.6437H114.547C114.567 20.6634 114.588 20.6845 114.611 20.707H114.619ZM93.6182 43.4606C97.8457 41.6963 100.769 37.4166 100.769 32.5713C100.769 26.2445 95.749 20.8294 89.2629 20.8294C82.7768 20.8294 77.7566 26.2445 77.7566 32.5713C77.7566 38.898 82.7768 44.3427 89.2629 44.3427C90.2473 44.3427 91.2019 44.2161 92.0926 43.9966C94.2873 46.2926 96.6354 49.0656 100.612 49.0656C102.806 49.0656 105.474 48.2468 108.875 46.0774C106.143 47.1494 103.948 47.5884 102.107 47.5884C97.9779 47.5884 95.6553 45.4147 93.6225 43.4648L93.6182 43.4606ZM88.2146 40.3753C86.7827 40.3753 85.5127 40.9746 84.4004 41.8567C85.4488 41.2278 86.3395 40.9746 87.1662 40.9746C88.9774 40.9746 90.3752 42.2028 91.8071 43.68C91.0144 43.9628 90.1536 44.1232 89.2629 44.1232C85.5425 44.1232 82.683 41.4473 81.0934 38.2987C80.2028 36.5345 79.8235 34.5845 79.8235 32.6008C79.8235 30.6171 80.2369 28.6967 81.0934 26.9029C82.683 23.7543 85.5425 21.0151 89.2629 21.0151C92.9833 21.0151 95.8428 23.7206 97.3983 26.9029C98.2889 28.6967 98.6682 30.6467 98.6682 32.6008C98.6682 36.6315 96.7931 40.9408 93.1708 43.0512C91.773 41.6963 90.3113 40.3753 88.2146 40.3753ZM9.40504 28.5448L8.67205 28.3886L9.43487 28.2958C11.5316 27.9792 13.6283 27.038 13.6283 24.7082C13.6283 20.9012 8.70188 20.5846 5.7486 20.5846H0.349167C1.11199 21.1839 1.65321 22.4079 1.65321 23.2605V41.5149C1.65321 42.397 1.11199 43.5914 0.319336 44.1908H6.32391C9.91643 44.1908 14.2377 43.4648 16.2065 40.16C16.9395 38.9318 17.289 37.5474 17.289 36.1293C17.289 31.3135 13.7305 29.3003 9.4093 28.5448H9.40504ZM3.49422 23.29C3.49422 22.4417 3.62207 21.433 4.32097 20.8041L4.3508 20.7745H5.87644C8.48454 20.7745 11.8512 21.2135 11.8512 24.6786C11.8512 25.3708 11.6594 26.0335 11.1523 26.5653C9.97609 27.823 7.55977 28.2324 5.94037 28.2029L3.49422 28.1734V23.2943V23.29ZM5.30539 43.9713H4.3508L4.32097 43.9417C3.6519 43.3129 3.49422 42.3041 3.49422 41.4558V28.4266H3.62207C4.99003 28.4266 6.38784 28.4604 7.78564 28.4899C9.11951 28.5194 11.1864 29.1188 12.3285 29.8743C14.5232 31.3557 15.2221 33.5885 15.2221 36.1377C15.2221 42.245 10.6793 43.9755 5.30539 43.9755V43.9713Z" fill="#7E8C9E"/>
<path d="M51.6246 0.519593C51.9229 0.815039 52.1658 1.46502 52.1658 1.89131V12.6287C52.1658 13.1858 51.8462 13.8527 51.3987 14.2241H60.3864L59.9943 13.0929C59.9773 13.1309 59.956 13.1858 59.956 13.2238C59.7855 13.7598 59.4148 14.0595 58.8522 14.0595H53.7213L53.7042 14.0426C53.3463 13.6712 53.2738 13.1351 53.2738 12.6498L53.2568 5.02726H56.3294C56.8919 5.02726 57.5269 5.34381 57.8465 5.80386V4.07761C57.4928 4.55876 57.0027 4.87531 56.3294 4.87531H53.2568V1.81534C53.2568 1.35106 53.3335 0.793936 53.7085 0.443621L53.7255 0.426739H58.8352C59.4531 0.426739 59.8835 0.836143 59.9943 1.37217L60.3864 0.295898H51.3817L51.42 0.333884C51.4967 0.388753 51.5692 0.443622 51.6246 0.519593V0.519593ZM79.5167 6.6902L82.4486 9.19727L83.1561 9.80504L84.5411 11.0122L85.1462 12.6498C85.257 12.9663 85.3508 13.2997 85.3508 13.6332C85.3508 13.8358 85.3124 14.0426 85.2016 14.2283H87.0938C86.625 13.878 86.2159 13.3209 86.0454 12.8186L81.6347 0.557579L81.5494 0.317002L79.538 6.10353C79.538 6.10353 78.2552 9.91056 77.7694 11.0417C77.3219 12.08 76.3588 13.1647 74.8502 13.6754C74.5988 13.7598 74.3303 13.8273 74.0405 13.8822C74.015 13.8864 73.9851 13.8906 73.9595 13.8949C73.8999 13.9033 73.836 13.916 73.7763 13.9244C73.495 13.9624 73.1967 13.9793 72.8856 13.9751C72.0376 13.9666 71.1853 13.8527 70.4096 13.6458C68.0573 12.6371 66.6935 9.75861 66.6935 7.26843C66.6935 6.0993 66.9365 4.95129 67.4436 3.8919C68.3598 2.03903 70.0645 0.481607 72.2549 0.481607C73.0774 0.481607 73.9212 0.612448 74.6712 1.01763C75.4767 1.4608 76.3929 2.27961 76.3929 3.31789C76.3929 3.39386 76.3929 3.46561 76.3759 3.52048L77.9654 2.85362C77.8163 2.76076 77.7012 2.65103 77.6117 2.53707C76.2267 0.996528 74.2962 0.350767 72.2379 0.350767C68.4365 0.350767 65.4619 3.5036 65.4619 7.26843C65.4619 11.0333 68.4195 14.1861 72.2379 14.1861C72.647 14.1861 73.0348 14.1692 73.397 14.1312C75.8432 13.9666 77.339 12.4978 77.9356 11.1092C78.3106 10.2313 79.1587 7.77491 79.5294 6.6902H79.5167ZM79.6956 6.16261L81.1702 1.89553L82.406 5.23407L82.4614 5.4029L84.4047 10.6703L79.5721 6.52137C79.6488 6.3019 79.6914 6.16683 79.6914 6.16683L79.6956 6.16261ZM135.118 42.5827C134.832 43.4943 134.197 44.0008 133.242 44.0008H124.536L124.506 43.9713C123.901 43.3424 123.773 42.4307 123.773 41.6119L123.739 28.6756H128.951C129.906 28.6756 130.984 29.2116 131.525 29.9967V27.0718C130.92 27.8906 130.093 28.4266 128.951 28.4266H123.739V23.2352C123.739 22.4501 123.867 21.5047 124.502 20.9054L124.532 20.8758H133.208C134.257 20.8758 134.99 21.568 135.177 22.4797L135.846 20.6521H120.56L120.624 20.7154C120.752 20.8083 120.88 20.9054 120.973 21.032C121.48 21.5343 121.894 22.6358 121.894 23.3618V41.5866C121.894 42.532 121.353 43.6632 120.59 44.292H135.846L135.177 42.3716C135.147 42.435 135.113 42.5278 135.113 42.5911L135.118 42.5827ZM29.0083 1.3173C29.1788 0.781274 29.5709 0.481607 30.1334 0.481607H32.473L32.4901 0.49849C32.7884 0.777054 33.0142 1.49879 33.0142 1.88709V12.6287C33.0142 13.2407 32.733 13.8358 32.2471 14.203H34.7572C34.2714 13.8864 34.1222 13.1267 34.1222 12.6287V1.90819C34.1222 1.42703 34.1989 0.886791 34.5527 0.49849L34.5697 0.481607H37.0244C37.5869 0.481607 37.9619 0.798157 38.1281 1.3173C38.1452 1.37217 38.1452 1.42703 38.1665 1.46502L38.5799 0.295898H28.5609L28.9742 1.46502C28.9913 1.42703 28.9913 1.37217 29.0126 1.3173H29.0083ZM87.7927 14.2241H90.3198C89.8127 13.8906 89.6635 13.1309 89.6635 12.6118V9.29434L91.5343 6.67753L94.8285 12.6118C94.9777 12.8903 95.1098 13.2786 95.1098 13.5952C95.1098 13.764 95.0928 14.0384 94.9393 14.2241H97.4665C97.3727 14.1692 97.296 14.1312 97.2235 14.0932C96.661 13.7387 96.2519 13.2196 95.9323 12.6455L92.148 5.82074L95.1268 1.73936C95.6127 1.0725 96.3073 0.62511 97.0744 0.312781H95.1823C95.1823 0.312781 95.1993 0.36765 95.2206 0.405636C95.259 0.49849 95.276 0.608227 95.276 0.663096C95.276 1.12737 95.0501 1.57054 94.8072 1.92507L89.6592 9.00734V1.90819C89.6592 1.38905 89.8084 0.62933 90.2942 0.312781H87.7841C88.2529 0.684199 88.5725 1.29619 88.5725 1.88709V12.6455C88.5725 13.2196 88.2529 13.8527 87.7841 14.2199L87.7927 14.2241ZM98.6341 0.333884C98.7108 0.388753 98.7833 0.443622 98.8387 0.519593C99.137 0.815039 99.3799 1.46502 99.3799 1.89131V12.6287C99.3799 13.1858 99.0603 13.8527 98.6128 14.2241H107.601L107.208 13.0929C107.191 13.1309 107.17 13.1858 107.17 13.2238C107 13.7598 106.629 14.0595 106.066 14.0595H100.935L100.918 14.0426C100.56 13.6712 100.488 13.1351 100.488 12.6498L100.471 5.02726H103.543C104.106 5.02726 104.741 5.34381 105.061 5.80386V4.07761C104.707 4.55876 104.217 4.87531 103.543 4.87531H100.471V1.81534C100.471 1.35106 100.548 0.793936 100.918 0.443621L100.935 0.426739H106.045C106.663 0.426739 107.093 0.836143 107.204 1.37217L107.596 0.295898H98.5915C98.5915 0.295898 98.6086 0.312781 98.6299 0.333884H98.6341ZM39.5131 14.2241H41.4053C41.0516 13.8147 40.9578 13.1858 40.9578 12.7046V5.04414H48.5988L48.5818 12.7384C48.5818 13.2744 48.3559 13.8316 48.0022 14.2199H49.8944C49.5407 13.8104 49.4256 13.1816 49.4256 12.7004V1.79845C49.4256 1.35528 49.5364 0.722185 49.8731 0.295898H48.0022C48.3559 0.705302 48.5818 1.24133 48.5818 1.78157L48.5988 4.87953H40.9791L40.9621 1.80267C40.9621 1.3595 41.0729 0.726406 41.4096 0.300119H39.5174C39.8711 0.709523 40.1183 1.24555 40.1183 1.78579V12.7384C40.1183 13.2744 39.8754 13.8316 39.5174 14.2199L39.5131 14.2241ZM53.6403 22.6274C53.6744 22.5641 53.6744 22.4712 53.7042 22.3742C53.9898 21.4625 54.6588 20.956 55.6092 20.956H59.581L59.6108 20.9856C60.1179 21.4583 60.5015 22.6865 60.5015 23.3449V41.5697C60.5015 42.608 60.0242 43.6167 59.1974 44.2456H63.4547C62.628 43.7096 62.3723 42.4181 62.3723 41.5697V23.3829C62.3723 22.5641 62.5001 21.6524 63.1053 20.9898L63.1394 20.9602H67.3029C68.2575 20.9602 68.8925 21.4963 69.178 22.3784C69.2079 22.4712 69.2079 22.5683 69.242 22.6316L69.9409 20.6479H52.9371L53.636 22.6316L53.6403 22.6274ZM75.8219 20.707L75.8517 20.6775H71.5603C72.3529 21.2768 72.8302 22.4712 72.8302 23.3534V41.6077C72.8302 42.6798 72.3529 43.6547 71.5262 44.2836H75.8474C74.8928 43.6843 74.7011 42.4898 74.7011 41.5444V23.3829C74.7011 22.4375 74.8928 21.2726 75.8133 20.707H75.8219ZM47.6357 20.707C47.7636 20.7999 47.8914 20.8969 48.0193 21.0236C48.5264 21.5891 48.9099 22.5641 48.9099 23.3534V38.1172C48.9099 41.5486 46.9411 44.1274 43.3486 44.1274C40.7703 44.1274 39.0316 42.8359 38.2347 40.8607C40.3101 38.7123 41.5715 35.7621 41.5715 32.5755C41.5715 29.1568 40.097 26.0124 37.7233 23.8345V23.3829C37.7233 22.2475 37.9449 21.243 38.9293 20.6437H34.574C35.0896 21.032 35.4646 21.6735 35.6692 22.3235C34.02 21.3781 32.115 20.8336 30.0609 20.8336C23.6089 20.8336 18.5547 26.2487 18.5547 32.5755C18.5547 38.9023 23.6089 44.3469 30.0609 44.3469C32.8011 44.3469 35.2729 43.3719 37.2204 41.7765C37.5102 42.1353 37.8298 42.4687 38.1921 42.7431C39.6836 43.8447 41.465 44.3174 43.34 44.3174C47.1201 44.3174 50.7765 42.1142 50.7765 37.9906V23.3829C50.7765 22.218 51.0322 21.243 51.9825 20.6437H47.5633C47.5832 20.6634 47.6045 20.6845 47.6272 20.707H47.6357ZM30.0609 44.1274C26.3406 44.1274 23.4811 41.4515 21.9256 38.3029C21.0349 36.5387 20.6215 34.5888 20.6215 32.605C20.6215 30.6213 21.0349 28.7009 21.9256 26.9072C23.4811 23.7585 26.3448 21.0193 30.0609 21.0193C33.7771 21.0193 36.6408 23.7248 38.2304 26.9072C39.087 28.7009 39.4705 30.6509 39.4705 32.605C39.4705 34.5592 39.087 36.5387 38.2304 38.3029C36.6408 41.4811 33.7813 44.1274 30.0609 44.1274ZM114.619 20.707C114.747 20.7999 114.875 20.8969 115.003 21.0236C115.51 21.5891 115.894 22.5641 115.894 23.3534V38.1172C115.894 41.5486 113.925 44.1274 110.332 44.1274C106.74 44.1274 104.707 41.5444 104.707 38.0835V23.3829C104.707 22.2475 104.928 21.243 105.913 20.6437H101.558C102.35 21.243 102.828 22.4375 102.828 23.3491L102.857 38.1721C102.857 39.9026 103.778 41.6963 105.176 42.7346C106.671 43.8362 108.449 44.3089 110.324 44.3089C114.104 44.3089 117.76 42.1057 117.76 37.9822V23.3829C117.76 22.218 118.016 21.243 118.966 20.6437H114.547C114.567 20.6634 114.588 20.6845 114.611 20.707H114.619ZM93.6182 43.4606C97.8457 41.6963 100.769 37.4166 100.769 32.5713C100.769 26.2445 95.749 20.8294 89.2629 20.8294C82.7768 20.8294 77.7566 26.2445 77.7566 32.5713C77.7566 38.898 82.7768 44.3427 89.2629 44.3427C90.2473 44.3427 91.2019 44.2161 92.0926 43.9966C94.2873 46.2926 96.6354 49.0656 100.612 49.0656C102.806 49.0656 105.474 48.2468 108.875 46.0774C106.143 47.1494 103.948 47.5884 102.107 47.5884C97.9779 47.5884 95.6553 45.4147 93.6225 43.4648L93.6182 43.4606ZM88.2146 40.3753C86.7827 40.3753 85.5127 40.9746 84.4004 41.8567C85.4488 41.2278 86.3395 40.9746 87.1662 40.9746C88.9774 40.9746 90.3752 42.2028 91.8071 43.6801C91.0144 43.9628 90.1536 44.1232 89.2629 44.1232C85.5425 44.1232 82.683 41.4473 81.0934 38.2987C80.2028 36.5345 79.8235 34.5845 79.8235 32.6008C79.8235 30.6171 80.2369 28.6967 81.0934 26.9029C82.683 23.7543 85.5425 21.0151 89.2629 21.0151C92.9833 21.0151 95.8428 23.7206 97.3983 26.9029C98.2889 28.6967 98.6682 30.6467 98.6682 32.6008C98.6682 36.6316 96.7931 40.9408 93.1708 43.0512C91.773 41.6963 90.3113 40.3753 88.2146 40.3753V40.3753ZM9.40504 28.5448L8.67205 28.3886L9.43487 28.2958C11.5316 27.9792 13.6283 27.038 13.6283 24.7082C13.6283 20.9012 8.70188 20.5846 5.7486 20.5846H0.349167C1.11199 21.1839 1.65321 22.4079 1.65321 23.2605V41.5149C1.65321 42.397 1.11199 43.5914 0.319336 44.1908H6.32391C9.91643 44.1908 14.2377 43.4648 16.2065 40.16C16.9395 38.9318 17.289 37.5474 17.289 36.1293C17.289 31.3135 13.7305 29.3003 9.4093 28.5448H9.40504ZM3.49422 23.29C3.49422 22.4417 3.62207 21.433 4.32097 20.8041L4.3508 20.7745H5.87644C8.48454 20.7745 11.8512 21.2135 11.8512 24.6786C11.8512 25.3708 11.6594 26.0335 11.1523 26.5653C9.97609 27.823 7.55977 28.2324 5.94037 28.2029L3.49422 28.1734V23.2943V23.29ZM5.30539 43.9713H4.3508L4.32097 43.9417C3.6519 43.3129 3.49422 42.3041 3.49422 41.4558V28.4266H3.62207C4.99003 28.4266 6.38784 28.4604 7.78564 28.4899C9.11951 28.5194 11.1864 29.1188 12.3285 29.8743C14.5232 31.3557 15.2221 33.5885 15.2221 36.1377C15.2221 42.245 10.6793 43.9755 5.30539 43.9755V43.9713Z" stroke="#ffffff" stroke-width="0.5" stroke-miterlimit="10"/>
<path d="M19.4502 56.9544V54.1182H20.3238C20.8693 54.1182 21.2358 54.4052 21.2358 54.8694C21.2358 55.1733 21.0696 55.3928 20.8565 55.4983C21.1335 55.5532 21.3892 55.8275 21.3892 56.1652C21.3892 56.5957 21.0611 56.9544 20.4218 56.9544H19.4502ZM19.9616 55.3379H20.2471C20.6051 55.3379 20.7287 55.1564 20.7287 54.9201C20.7287 54.6837 20.5625 54.5613 20.2642 54.5613H19.9616V55.3379ZM19.9616 56.5071H20.4048C20.7287 56.5071 20.865 56.3636 20.865 56.1356C20.865 55.9077 20.6988 55.7853 20.4261 55.7853H19.9616V56.5071Z" fill="#7E8C9E"/>
<path d="M24.4573 56.9544V55.7178L23.4814 54.1182H24.0653L24.6747 55.1396C24.696 55.1818 24.7216 55.2577 24.7216 55.2577C24.7216 55.2577 24.7471 55.186 24.7727 55.1353L25.3821 54.1182H25.9617L24.9687 55.7178V56.9544H24.4573Z" fill="#7E8C9E"/>
<path d="M31.6169 56.9544L30.8711 54.1182H31.3867L31.8172 55.8022C31.8385 55.8824 31.8513 56.0132 31.8513 56.0132C31.8513 56.0132 31.8726 55.8866 31.8896 55.8022L32.3413 54.1182H32.7845L33.2405 55.8106C33.2576 55.8782 33.2704 56.0175 33.2704 56.0175C33.2704 56.0175 33.2874 55.8866 33.3045 55.8064L33.7519 54.1182H34.2591L33.4834 56.9544H33.0488L32.6013 55.262C32.58 55.1775 32.5587 55.0003 32.5544 54.975C32.5544 55.0087 32.5288 55.186 32.5075 55.262L32.0558 56.9544H31.6126H31.6169Z" fill="#7E8C9E"/>
<path d="M36.2328 56.9544L37.2939 54.1182H37.7201L38.7897 56.9544H38.2272L37.9459 56.1399H37.051L36.7697 56.9544H36.2285H36.2328ZM37.2087 55.6925H37.801L37.5453 54.9496C37.524 54.8863 37.5027 54.8104 37.5027 54.8019C37.5027 54.8104 37.4857 54.8863 37.4644 54.9496L37.2087 55.6925Z" fill="#7E8C9E"/>
<path d="M41.2061 56.9544V54.1182H41.7174V56.5071H42.7743V56.9544H41.2103H41.2061Z" fill="#7E8C9E"/>
<path d="M45.2246 56.9544V54.1182H46.0258C46.9207 54.1182 47.5344 54.6837 47.5344 55.5279C47.5344 56.372 46.8738 56.9544 46.0045 56.9544H45.2246ZM45.736 56.5155H45.9832C46.6735 56.5155 47.006 56.0343 47.006 55.5321C47.006 54.9918 46.6139 54.5529 46.0215 54.5529H45.736V56.5155Z" fill="#7E8C9E"/>
<path d="M49.9121 55.5271C49.9121 54.7083 50.5215 54.0752 51.3738 54.0752C52.2262 54.0752 52.8526 54.6999 52.8526 55.5313C52.8526 56.3628 52.2304 57.0043 51.3824 57.0043C50.5343 57.0043 49.9121 56.3586 49.9121 55.5271ZM52.3242 55.5271C52.3242 54.97 51.9449 54.5395 51.3781 54.5395C50.8113 54.5395 50.4363 54.9826 50.4363 55.5313C50.4363 56.1053 50.8752 56.5443 51.3824 56.5443C51.9193 56.5443 52.3242 56.1053 52.3242 55.5271Z" fill="#7E8C9E"/>
<path d="M55.35 56.9544V54.1182H56.3259C56.8927 54.1182 57.2634 54.4854 57.2634 54.9581C57.2634 55.397 56.9395 55.7136 56.5347 55.7642L57.4424 56.9544H56.833L55.8571 55.6207V56.9544H55.3457H55.35ZM55.8614 55.3928H56.2875C56.573 55.3928 56.7478 55.2155 56.7478 54.9496C56.7478 54.7555 56.5773 54.5613 56.2918 54.5613H55.8614V55.3928Z" fill="#7E8C9E"/>
<path d="M59.8633 56.9544V54.1182H61.3378V54.5613H60.3747V55.3548H61.2824V55.798H60.3747V56.9544H59.8633Z" fill="#7E8C9E"/>
<path d="M66.4388 56.9544L67.5 54.1182H67.9261L68.9958 56.9544H68.4333L68.152 56.1399H67.2571L66.9758 56.9544H66.4346H66.4388ZM67.4147 55.6925H68.0071L67.7514 54.9496C67.7301 54.8863 67.7088 54.8104 67.7088 54.8019C67.7088 54.8104 67.6917 54.8863 67.6704 54.9496L67.4147 55.6925Z" fill="#7E8C9E"/>
<path d="M71.5186 56.3125C71.6805 56.4433 71.9277 56.5362 72.1408 56.5362C72.4263 56.5362 72.5669 56.4222 72.5669 56.2069C72.5669 55.941 72.1919 55.8313 71.9447 55.6962C71.5953 55.519 71.2757 55.3375 71.2757 54.8437C71.2757 54.3499 71.689 54.0713 72.2004 54.0713C72.4774 54.0713 72.7715 54.1473 73.0016 54.3119L72.7544 54.7044C72.601 54.5904 72.422 54.5313 72.1962 54.5313C71.9405 54.5313 71.7956 54.6664 71.7956 54.831C71.7956 55.1138 72.1152 55.2024 72.4604 55.3628C72.763 55.5021 73.0826 55.7047 73.0826 56.1732C73.0826 56.6923 72.6905 56.9962 72.1408 56.9962C71.7956 56.9962 71.51 56.8865 71.2373 56.6754L71.51 56.3082L71.5186 56.3125Z" fill="#7E8C9E"/>
<path d="M75.963 56.9544V54.5613H75.3877V54.1182H77.054V54.5613H76.4744V56.9544H75.963Z" fill="#7E8C9E"/>
<path d="M79.1719 55.5271C79.1719 54.7083 79.7813 54.0752 80.6336 54.0752C81.4859 54.0752 82.1124 54.6999 82.1124 55.5313C82.1124 56.3628 81.4902 57.0043 80.6421 57.0043C79.7941 57.0043 79.1719 56.3586 79.1719 55.5271ZM81.5839 55.5271C81.5839 54.97 81.2047 54.5395 80.6379 54.5395C80.0711 54.5395 79.696 54.9826 79.696 55.5313C79.696 56.1053 80.135 56.5443 80.6421 56.5443C81.1791 56.5443 81.5839 56.1053 81.5839 55.5271Z" fill="#7E8C9E"/>
<path d="M84.6097 56.9544V54.1182H85.5856C86.1524 54.1182 86.5232 54.4854 86.5232 54.9581C86.5232 55.397 86.1993 55.7136 85.7945 55.7642L86.7022 56.9544H86.0928L85.1169 55.6207V56.9544H84.6055H84.6097ZM85.1211 55.3928H85.5473C85.8328 55.3928 86.0075 55.2155 86.0075 54.9496C86.0075 54.7555 85.8371 54.5613 85.5515 54.5613H85.1211V55.3928Z" fill="#7E8C9E"/>
<path d="M89.123 56.9544V54.1182H89.6344V56.9544H89.123Z" fill="#7E8C9E"/>
<path d="M92.0463 56.9544L93.1074 54.1182H93.5335L94.6032 56.9544H94.0407L93.7594 56.1399H92.8645L92.5832 56.9544H92.042H92.0463ZM93.0222 55.6925H93.6145L93.3588 54.9496C93.3375 54.8863 93.3162 54.8104 93.3162 54.8019C93.3162 54.8104 93.2949 54.8863 93.2779 54.9496L93.0222 55.6925Z" fill="#7E8C9E"/>
<path d="M99.7979 56.9544V54.1182H100.599C101.494 54.1182 102.108 54.6837 102.108 55.5279C102.108 56.372 101.451 56.9544 100.578 56.9544H99.7979ZM100.309 56.5155H100.556C101.247 56.5155 101.579 56.0343 101.579 55.5321C101.579 54.9918 101.187 54.5529 100.595 54.5529H100.309V56.5155Z" fill="#7E8C9E"/>
<path d="M104.605 56.9544V54.1182H105.117V56.9544H104.605Z" fill="#7E8C9E"/>
<path d="M107.746 56.9544V54.1182H109.221V54.5613H108.257V55.3548H109.165V55.798H108.257V56.9544H107.746Z" fill="#7E8C9E"/>
<path d="M114.129 56.5024C113.886 56.7978 113.524 57.0004 113.026 57.0004C112.242 57.0004 111.594 56.4349 111.594 55.5274C111.594 54.6917 112.216 54.0713 113.03 54.0713C113.494 54.0713 113.81 54.219 114.074 54.5018L113.75 54.831C113.558 54.6369 113.324 54.5313 113.034 54.5313C112.51 54.5313 112.122 54.9365 112.122 55.5232C112.122 56.1774 112.548 56.5362 113.03 56.5362C113.35 56.5362 113.597 56.4053 113.81 56.1774L114.129 56.4982V56.5024Z" fill="#7E8C9E"/>
</g>
<defs>
<clipPath id="clip0_355_21678">
<rect width="136" height="57" fill="white"/>
</clipPath>
</defs>
</svg>
